<svg id="Layer_2" data-name="Layer 2" xmlns="http://www.w3.org/2000/svg" width="63.89" height="63.89" viewBox="0 0 63.89 63.89"><defs><style>.cls-1{fill:#f7df1e;}</style></defs><path class="cls-1" d="M0,0H63.89V63.89H0Z"/><path d="M16.8,53.39l4.89-3c.94,1.67,1.8,3.08,3.86,3.08s3.22-.77,3.22-3.77V29.33h6v20.5c0,6.22-3.64,9.05-9,9.05a9.3,9.3,0,0,1-9-5.49M38,52.75l4.89-2.83c1.29,2.1,3,3.65,5.92,3.65,2.49,0,4.07-1.25,4.07-3,0-2.06-1.62-2.79-4.37-4L47,46c-4.33-1.84-7.21-4.16-7.21-9,0-4.51,3.43-7.94,8.8-7.94,3.81,0,6.56,1.33,8.53,4.8l-4.67,3c-1-1.85-2.15-2.58-3.86-2.58a2.63,2.63,0,0,0-2.87,2.35c0,.07,0,.15,0,.23,0,1.8,1.12,2.53,3.69,3.64l1.5.65c5.11,2.18,8,4.41,8,9.43,0,5.41-4.25,8.36-10,8.36S39.79,56.23,38,52.75"/></svg>